<svg width="320" height="583" viewBox="0 0 320 583" fill="none" xmlns="http://www.w3.org/2000/svg">
<path d="M74.7585 -619.067C68.7343 -592.134 50.8307 -510.591 38.6132 -457.469C26.3958 -404.347 12.1092 -350.149 1.45371 -300.338C-9.20173 -250.527 -14.0877 -212.811 -25.3194 -158.605C-36.5511 -104.399 -47.5746 -24.9043 -65.9364 24.8992C-84.2982 74.7026 -119.508 95.4531 -135.49 140.216C-151.472 184.979 -157.437 267.933 -161.826 293.476L315.626 1178.98L552.211 266.441L74.7585 -619.067Z" fill="url(#paint0_linear)"/>
<path d="M134.326 -533.832C130.798 -511.292 123.973 -450.205 113.158 -398.589C102.343 -346.972 83.6544 -267.504 69.4358 -224.134C55.2171 -180.764 39.3544 -170.792 27.8463 -138.369C16.3382 -105.946 10.023 -71.5758 0.387182 -29.5951C-9.2486 12.3856 -20.8199 57.7366 -29.9684 113.515C-39.1168 169.294 -41.6961 257.423 -54.5037 305.076C-67.3112 352.729 -98.0954 383.707 -106.814 399.433L314.931 1176.25L556.07 242.985L134.326 -533.832Z" fill="url(#paint1_linear)"/>
<path d="M195.126 -445.719C189.197 -421.957 172.532 -359.476 159.549 -303.148C146.565 -246.821 129.919 -170.116 117.223 -107.755C104.526 -45.3937 98.1356 21.767 83.371 71.0196C68.6065 120.272 43.2571 145.447 28.6355 187.761C14.014 230.075 9.14796 271.707 -4.3584 324.902C-17.8648 378.097 -44.3952 476.593 -52.4026 506.932L311.716 1173.17L559.245 220.522L195.126 -445.719Z" fill="url(#paint2_linear)"/>
<path d="M260.953 -342.384C251.893 -319.859 224.09 -252.185 206.593 -207.235C189.095 -162.285 170.514 -132.307 155.965 -72.6843C141.416 -13.0615 132.133 88.1861 119.297 150.502C106.461 212.817 92.6562 249.849 78.9485 301.209C65.2409 352.57 48.8699 404.836 37.0509 458.666C25.2319 512.495 12.8706 596.598 8.03448 624.185L308.702 1170.29L561.62 203.718L260.953 -342.384Z" fill="url(#paint3_linear)"/>
<path d="M325.153 -252.267C310.668 -215.447 260.684 -110.907 238.244 -31.3492C215.804 48.2091 208.527 140.723 190.514 225.083C172.501 309.442 151.591 389.788 130.166 474.808C108.741 559.828 73.3319 691.804 61.965 735.203L302.259 1164.12L565.447 176.649L325.153 -252.267Z" fill="url(#paint4_linear)"/>
<path d="M393.952 -156.612C389.353 -123.26 385.472 -11.3243 366.358 43.5002C347.244 98.3247 298 127.626 279.265 172.335C260.529 217.044 261.786 249.781 253.945 311.755C246.105 373.729 247.609 487.401 232.223 544.179C216.837 600.957 180.924 601.495 161.631 652.422C142.339 703.349 123.995 816.855 116.468 849.742L292.018 1154.31L569.501 147.961L393.952 -156.612Z" fill="url(#paint5_linear)"/>
<path d="M473.813 -45.6699C471.184 -12.5141 469.717 98.3537 458.042 153.265C446.367 208.176 417.842 242.847 403.762 283.797C389.681 324.747 393.485 365.326 373.559 398.965C353.633 432.604 306.605 447.35 284.204 485.632C261.803 523.913 250.001 574.27 239.154 628.652C228.308 683.034 229.641 754.563 219.122 811.922C208.603 869.28 183.221 945.991 176.041 972.805L275.641 1138.64L573.413 120.168L473.813 -45.6699Z" fill="url(#paint6_linear)"/>
<defs>
<linearGradient id="paint0_linear" x1="113.891" y1="-546.49" x2="-435.271" y2="-290.624" gradientUnits="userSpaceOnUse">
<stop stop-color="#3F3F61"/>
</linearGradient>
<linearGradient id="paint1_linear" x1="172.967" y1="-462.659" x2="-385.095" y2="-207.245" gradientUnits="userSpaceOnUse">
<stop stop-color="#5C5481"/>
<stop offset="0.142857" stop-color="#545481"/>
</linearGradient>
<linearGradient id="paint2_linear" x1="229.672" y1="-382.511" x2="-336.844" y2="-129.759" gradientUnits="userSpaceOnUse">
<stop stop-color="#746B9F"/>
<stop offset="0.285714" stop-color="#6B6B9F"/>
</linearGradient>
<linearGradient id="paint3_linear" x1="269.979" y1="-325.989" x2="-302.314" y2="-76.4707" gradientUnits="userSpaceOnUse">
<stop stop-color="#938CB4"/>
<stop offset="0.428571" stop-color="#8C8CB4"/>
</linearGradient>
<linearGradient id="paint4_linear" x1="332.051" y1="-239.955" x2="-247.747" y2="0.589317" gradientUnits="userSpaceOnUse">
<stop stop-color="#B1ACC9"/>
<stop offset="0.571429" stop-color="#ACACC9"/>
</linearGradient>
<linearGradient id="paint5_linear" x1="395.69" y1="-153.595" x2="-186.489" y2="67.3782" gradientUnits="userSpaceOnUse">
<stop stop-color="#CFCCDE"/>
<stop offset="0.714286" stop-color="#CCCCDE"/>
</linearGradient>
<linearGradient id="paint6_linear" x1="458.357" y1="-71.4051" x2="-107.939" y2="105.053" gradientUnits="userSpaceOnUse">
<stop stop-color="#EEECF3"/>
<stop offset="0.857143" stop-color="#EDECF3"/>
</linearGradient>
</defs>
</svg>
