<svg xmlns="http://www.w3.org/2000/svg" version="1.1" xmlns:xlink="http://www.w3.org/1999/xlink" xmlns:svgjs="http://svgjs.dev/svgjs" viewBox="0 0 1920 1080"><rect width="1920" height="1080" fill="#3f3f61"></rect><g transform="matrix(1.1108147002324285,0.29764190186789885,-0.29764190186789885,1.1108147002324285,56.43352516483128,-339.9652023674589)"><path d="M0,-1080C12.678294435686917,-997.6617450586627,65.69488179325367,-745.1176316889627,76.0697666141215,-585.9704703519768C86.44465143498934,-426.82330901499097,81.20800276638789,-261.2336091563342,62.24930892520703,-125.11703197808468C43.29061508402617,10.999545200164832,-36.249744391297114,85.37083187118256,-37.682396432963685,230.72899271752038C-39.11504847463026,376.08715356385824,35.22042800569214,568.2379770323414,53.6533966752076,747.0319330999422C72.08636534472306,925.825889167543,87.47144247125664,1140.9365946377654,72.91541558412911,1303.4927291231254C58.35938869700157,1466.0488636084854,-21.530195383536082,1579.6175281992896,-33.6827646475576,1722.368740012102C-45.83533391157911,1865.1199518249146,-5.6137941079262665,2087.0614566686836,0,2160L 1920 2160 L 1920 -1080 Z" fill="url(&quot;#SvgjsLinearGradient1156&quot;)"></path><path d="M320,-1080C317.7498115260561,-941.1756532054617,302.54754375913353,-519.8057527660064,306.49886915633664,-247.0539192327704C310.45019455353975,25.69791430046564,328.493684844026,283.98817863031144,343.7079523832185,556.511001199416C358.92221992241105,829.0338237685205,401.7357997886948,1120.834849715093,397.7844743914917,1388.083016181857C393.8331489942886,1655.3311826486208,332.9640790652486,2031.347169363643,320,2160L 1920 2160 L 1920 -1080 Z" fill="url(&quot;#SvgjsLinearGradient1157&quot;)"></path><path d="M640,-1080C634.0196004151977,-958.1543160547963,597.5791720290058,-619.7828580652952,604.1176024911862,-348.92589632877787C610.6560329533665,-78.06893459226063,686.3438727051074,273.09264605507195,679.2305827730821,545.1417704191034C672.1172928410568,817.1908947831348,567.976293361215,1014.2258115919278,561.4378628990346,1283.3688498554106C554.8994324368542,1552.5118881188935,626.9063104831724,2013.894808309235,640,2160L 1920 2160 L 1920 -1080 Z" fill="url(&quot;#SvgjsLinearGradient1158&quot;)"></path><path d="M960,-1080C958.2543823212488,-962.0783490798013,960.1902773660915,-589.1455403968939,949.5262939274927,-372.47009447880777C938.8623104888939,-155.79464856072158,893.4419048056412,17.099948055152055,896.0160993684068,220.05267550851698C898.5902939311724,423.00540296188194,952.5166036094083,634.7338354077154,964.971461304086,845.2462702413818C977.4263189987637,1055.758705075048,971.5738224204874,1264.0016628840785,970.7452455364731,1483.127284510515C969.9166686524588,1702.2529061369514,961.7908742560788,2047.1878807517526,960,2160L 1920 2160 L 1920 -1080 Z" fill="url(&quot;#SvgjsLinearGradient1159&quot;)"></path><path d="M1280,-1080C1292.9962858480953,-969.074470373292,1361.5023299540114,-627.1464211801413,1357.9777150885716,-414.44682223975195C1354.4531002231317,-201.7472232993626,1259.5689056916688,-25.813717104090188,1258.852310807361,196.1975936423361C1258.135715923053,418.2089043887624,1342.7251876560713,694.545218625212,1353.6781457827246,917.6210422388058C1364.631103909378,1140.6968658523997,1336.8497505310693,1327.5893756970336,1324.5700595672818,1534.6525353238992C1312.2903686034942,1741.7156949507648,1287.4283432612137,2055.7754225539834,1280,2160L 1920 2160 L 1920 -1080 Z" fill="url(&quot;#SvgjsLinearGradient1160&quot;)"></path><path d="M1600,-1080C1587.8373824932328,-955.4047048351271,1526.986494311702,-614.3416335353799,1527.0242949593965,-332.4282290107621C1527.062095607091,-50.514824486144335,1576.5440637211161,337.4106168071767,1600.2268038861664,611.4804271477063C1623.9095440512167,885.550237488236,1669.1585365973922,1053.9040375570332,1669.1207359496977,1311.9906330324154C1669.0829353020033,1570.0772285077976,1611.520122658283,2018.6651055054026,1600,2160L 1920 2160 L 1920 -1080 Z" fill="url(&quot;#SvgjsLinearGradient1161&quot;)"></path></g><defs><linearGradient x1="0.1" y1="0" x2="0" y2="1" id="SvgjsLinearGradient1156"><stop stop-color="#3f3f61" offset="0"></stop><stop stop-color="#3f4561" offset="0"></stop></linearGradient><linearGradient x1="0.1" y1="0" x2="0" y2="1" id="SvgjsLinearGradient1157"><stop stop-color="#585887" offset="0"></stop><stop stop-color="#586087" offset="0.16666666666666666"></stop></linearGradient><linearGradient x1="0.1" y1="0" x2="0" y2="1" id="SvgjsLinearGradient1158"><stop stop-color="#7777a7" offset="0"></stop><stop stop-color="#777fa7" offset="0.3333333333333333"></stop></linearGradient><linearGradient x1="0.1" y1="0" x2="0" y2="1" id="SvgjsLinearGradient1159"><stop stop-color="#9d9dbf" offset="0"></stop><stop stop-color="#9da3bf" offset="0.5"></stop></linearGradient><linearGradient x1="0.1" y1="0" x2="0" y2="1" id="SvgjsLinearGradient1160"><stop stop-color="#c3c3d8" offset="0"></stop><stop stop-color="#c3c6d8" offset="0.6666666666666666"></stop></linearGradient><linearGradient x1="0.1" y1="0" x2="0" y2="1" id="SvgjsLinearGradient1161"><stop stop-color="#e9e9f1" offset="0"></stop><stop stop-color="#e9eaf1" offset="0.8333333333333334"></stop></linearGradient></defs></svg>